<svg width="71" height="91" viewBox="0 0 71 91" fill="none" xmlns="http://www.w3.org/2000/svg">
<path d="M0.241735 0H8.39573C9.75173 0 11.0057 0.186 12.1577 0.558C13.3217 0.930001 14.2577 1.542 14.9657 2.394C15.6857 3.234 16.0457 4.374 16.0457 5.814C16.0457 6.762 15.8657 7.608 15.5057 8.352C15.1577 9.096 14.6897 9.708 14.1017 10.188C13.5257 10.656 12.8957 10.968 12.2117 11.124C12.8117 11.196 13.3937 11.37 13.9577 11.646C14.5337 11.91 15.0497 12.282 15.5057 12.762C15.9737 13.23 16.3397 13.818 16.6037 14.526C16.8797 15.222 17.0177 16.05 17.0177 17.01C17.0177 18.342 16.7177 19.518 16.1177 20.538C15.5297 21.546 14.6657 22.338 13.5257 22.914C12.3977 23.478 11.0117 23.76 9.36774 23.76H0.241735V0ZM5.62373 19.458H8.07174C8.83974 19.458 9.46374 19.344 9.94374 19.116C10.4357 18.876 10.7957 18.54 11.0237 18.108C11.2517 17.664 11.3657 17.136 11.3657 16.524C11.3657 15.564 11.0657 14.862 10.4657 14.418C9.87774 13.962 9.04974 13.734 7.98174 13.734H5.62373V19.458ZM5.62373 9.522H7.80174C8.43774 9.522 8.96574 9.408 9.38574 9.18C9.81774 8.952 10.1417 8.634 10.3577 8.226C10.5857 7.806 10.6997 7.326 10.6997 6.786C10.6997 5.814 10.4237 5.16 9.87174 4.824C9.31974 4.476 8.56374 4.302 7.60373 4.302H5.62373V9.522Z" fill="black"/>
<path d="M27.6299 0H32.9759L42.3539 23.76H36.6119L34.8839 18.99H25.7399L23.9939 23.76H18.2339L27.6299 0ZM27.5399 14.274H33.1019L30.3479 6.48H30.2939L27.5399 14.274Z" fill="black"/>
<path d="M69.562 0V23.76H64.198V9.774L64.432 5.796L63.514 10.35L59.518 21.852H54.244L50.266 10.35L49.366 5.796L49.6 9.774V23.76H44.218V0H51.778L56.566 15.858L56.89 17.748L57.214 15.858L62.002 0H69.562Z" fill="black"/>
<path d="M0.347204 33H8.5012C9.8572 33 11.1112 33.186 12.2632 33.558C13.4272 33.93 14.3632 34.542 15.0712 35.394C15.7912 36.234 16.1512 37.374 16.1512 38.814C16.1512 39.762 15.9712 40.608 15.6112 41.352C15.2632 42.096 14.7952 42.708 14.2072 43.188C13.6312 43.656 13.0012 43.968 12.3172 44.124C12.9172 44.196 13.4992 44.37 14.0632 44.646C14.6392 44.91 15.1552 45.282 15.6112 45.762C16.0792 46.23 16.4452 46.818 16.7092 47.526C16.9852 48.222 17.1232 49.05 17.1232 50.01C17.1232 51.342 16.8232 52.518 16.2232 53.538C15.6352 54.546 14.7712 55.338 13.6312 55.914C12.5032 56.478 11.1172 56.76 9.4732 56.76H0.347204V33ZM5.7292 52.458H8.1772C8.9452 52.458 9.5692 52.344 10.0492 52.116C10.5412 51.876 10.9012 51.54 11.1292 51.108C11.3572 50.664 11.4712 50.136 11.4712 49.524C11.4712 48.564 11.1712 47.862 10.5712 47.418C9.9832 46.962 9.1552 46.734 8.0872 46.734H5.7292V52.458ZM5.7292 42.522H7.9072C8.5432 42.522 9.0712 42.408 9.4912 42.18C9.9232 41.952 10.2472 41.634 10.4632 41.226C10.6912 40.806 10.8052 40.326 10.8052 39.786C10.8052 38.814 10.5292 38.16 9.9772 37.824C9.4252 37.476 8.6692 37.302 7.7092 37.302H5.7292V42.522Z" fill="black"/>
<path d="M25.1546 44.862C25.1546 46.218 25.4306 47.448 25.9826 48.552C26.5466 49.644 27.3206 50.514 28.3046 51.162C29.3006 51.81 30.4526 52.134 31.7606 52.134C33.0686 52.134 34.2146 51.81 35.1986 51.162C36.1946 50.514 36.9686 49.644 37.5206 48.552C38.0846 47.448 38.3666 46.218 38.3666 44.862C38.3666 43.506 38.0846 42.282 37.5206 41.19C36.9686 40.098 36.1946 39.228 35.1986 38.58C34.2146 37.92 33.0686 37.59 31.7606 37.59C30.4526 37.59 29.3006 37.92 28.3046 38.58C27.3206 39.228 26.5466 40.098 25.9826 41.19C25.4306 42.282 25.1546 43.506 25.1546 44.862ZM19.5566 44.862C19.5566 43.134 19.8626 41.526 20.4746 40.038C21.0866 38.538 21.9446 37.23 23.0486 36.114C24.1526 34.998 25.4486 34.128 26.9366 33.504C28.4246 32.88 30.0326 32.568 31.7606 32.568C33.5126 32.568 35.1266 32.88 36.6026 33.504C38.0906 34.128 39.3806 34.998 40.4726 36.114C41.5766 37.23 42.4286 38.538 43.0286 40.038C43.6406 41.526 43.9466 43.134 43.9466 44.862C43.9466 46.602 43.6526 48.222 43.0646 49.722C42.4766 51.21 41.6366 52.518 40.5446 53.646C39.4526 54.762 38.1626 55.632 36.6746 56.256C35.1866 56.88 33.5486 57.192 31.7606 57.192C29.9366 57.192 28.2746 56.88 26.7746 56.256C25.2866 55.632 24.0026 54.762 22.9226 53.646C21.8426 52.518 21.0086 51.21 20.4206 49.722C19.8446 48.222 19.5566 46.602 19.5566 44.862Z" fill="black"/>
<path d="M51.8733 44.862C51.8733 46.218 52.1493 47.448 52.7013 48.552C53.2653 49.644 54.0393 50.514 55.0233 51.162C56.0193 51.81 57.1713 52.134 58.4793 52.134C59.7873 52.134 60.9333 51.81 61.9173 51.162C62.9133 50.514 63.6873 49.644 64.2393 48.552C64.8033 47.448 65.0853 46.218 65.0853 44.862C65.0853 43.506 64.8033 42.282 64.2393 41.19C63.6873 40.098 62.9133 39.228 61.9173 38.58C60.9333 37.92 59.7873 37.59 58.4793 37.59C57.1713 37.59 56.0193 37.92 55.0233 38.58C54.0393 39.228 53.2653 40.098 52.7013 41.19C52.1493 42.282 51.8733 43.506 51.8733 44.862ZM46.2753 44.862C46.2753 43.134 46.5813 41.526 47.1933 40.038C47.8053 38.538 48.6633 37.23 49.7673 36.114C50.8713 34.998 52.1673 34.128 53.6553 33.504C55.1433 32.88 56.7513 32.568 58.4793 32.568C60.2313 32.568 61.8453 32.88 63.3213 33.504C64.8093 34.128 66.0993 34.998 67.1913 36.114C68.2953 37.23 69.1473 38.538 69.7473 40.038C70.3593 41.526 70.6653 43.134 70.6653 44.862C70.6653 46.602 70.3713 48.222 69.7833 49.722C69.1953 51.21 68.3553 52.518 67.2633 53.646C66.1713 54.762 64.8813 55.632 63.3933 56.256C61.9053 56.88 60.2673 57.192 58.4793 57.192C56.6553 57.192 54.9933 56.88 53.4933 56.256C52.0053 55.632 50.7213 54.762 49.6413 53.646C48.5613 52.518 47.7273 51.21 47.1393 49.722C46.5633 48.222 46.2753 46.602 46.2753 44.862Z" fill="black"/>
<path d="M9.648 65.568C11.124 65.568 12.414 65.73 13.518 66.054C14.622 66.378 15.51 66.72 16.182 67.08C16.854 67.44 17.262 67.68 17.406 67.8L14.814 72.138C14.622 71.994 14.292 71.784 13.824 71.508C13.368 71.232 12.822 70.986 12.186 70.77C11.562 70.554 10.908 70.446 10.224 70.446C9.3 70.446 8.55 70.614 7.974 70.95C7.41 71.274 7.128 71.76 7.128 72.408C7.128 72.852 7.278 73.254 7.578 73.614C7.89 73.962 8.358 74.298 8.982 74.622C9.618 74.934 10.422 75.276 11.394 75.648C12.282 75.972 13.116 76.356 13.896 76.8C14.676 77.244 15.36 77.772 15.948 78.384C16.548 78.984 17.022 79.68 17.37 80.472C17.718 81.264 17.892 82.164 17.892 83.172C17.892 84.372 17.646 85.416 17.154 86.304C16.662 87.18 15.99 87.906 15.138 88.482C14.298 89.058 13.338 89.484 12.258 89.76C11.19 90.048 10.08 90.192 8.928 90.192C7.296 90.192 5.832 90.006 4.536 89.634C3.252 89.262 2.214 88.86 1.422 88.428C0.63 87.996 0.156 87.708 0 87.564L2.682 83.046C2.826 83.154 3.102 83.328 3.51 83.568C3.93 83.808 4.44 84.06 5.04 84.324C5.64 84.576 6.276 84.792 6.948 84.972C7.632 85.152 8.304 85.242 8.964 85.242C10.068 85.242 10.896 85.032 11.448 84.612C12 84.18 12.276 83.616 12.276 82.92C12.276 82.404 12.102 81.942 11.754 81.534C11.406 81.126 10.884 80.742 10.188 80.382C9.492 80.01 8.622 79.62 7.578 79.212C6.534 78.792 5.556 78.282 4.644 77.682C3.744 77.082 3.012 76.332 2.448 75.432C1.884 74.532 1.602 73.416 1.602 72.084C1.602 70.752 1.974 69.6 2.718 68.628C3.474 67.644 4.464 66.888 5.688 66.36C6.924 65.832 8.244 65.568 9.648 65.568Z" fill="black"/>
<path d="M35.5165 77.484L44.5525 89.76H38.1265L30.8185 79.374V89.76H25.4365V66H30.8185V75.72L37.5505 66H43.6165L35.5165 77.484Z" fill="black"/>
<path d="M57.4082 81.21L49.2182 66H55.7522L60.0902 75.054L64.4462 66H70.9442L62.7902 81.21V89.76H57.4082V81.21Z" fill="black"/>
</svg>
